# xmcd CD database file
#
# Track frame offsets:
#	150
#	13592
#	27631
#	49920
#	62494
#	80582
#	91879
#	107686
#	136004
#	153847
#	169296
#	179319
#	204735
#
# Disc length: 2972 seconds
#
# Revision: 1
# Processed by: cddbd v1.5.1PL0 Copyright (c) Steve Scherf et al.
# Submitted via: CDex 1.51
#
DISCID=a60b9a0d
DTITLE=Quo - Sentir el Jazz_CD 4
DYEAR=2004
DGENRE=Jazz
TTITLE0=Tin Roof (Louis Armstrong)
TTITLE1=Sweet Georgia Brown (Django..)
TTITLE2=Summertime (Louis Armstrong, Ella Fitzgerald)
TTITLE3=Misty (Errol Garne)
TTITLE4=Lullaby Of Birdland /Sarah Vaughan)
TTITLE5=Corcovado (Stan Getz)
TTITLE6=Laura (Oscar Peterson)
TTITLE7=You are too beautiful (Sonny Rolling)
TTITLE8=Silhouette (Dizzy Gillespie)
TTITLE9=These foolish things (Lester Young)
TTITLE10=Going out of my head (Wes Montgomery)
TTITLE11=Air On A String (The Swingle Singers - The Modern Jazz Quartet)
TTITLE12=Friends and love (Chuck Mangione)
EXTD=YEAR: 2004
EXTT0=
EXTT1=
EXTT2=
EXTT3=
EXTT4=
EXTT5=
EXTT6=
EXTT7=
EXTT8=
EXTT9=
EXTT10=
EXTT11=
EXTT12=
PLAYORDER=
